<mxfile host="app.diagrams.net" modified="2023-09-02T17:20:23.515Z" agent="Mozilla/5.0 (Windows NT 10.0; Win64; x64) AppleWebKit/537.36 (KHTML, like Gecko) Chrome/116.0.0.0 Safari/537.36" etag="K1cm-qIBCC6O6zo8dW9u" version="21.6.9" type="device">
  <diagram id="C5RBs43oDa-KdzZeNtuy" name="Page-1">
    <mxGraphModel dx="841" dy="776" grid="1" gridSize="10" guides="1" tooltips="1" connect="1" arrows="1" fold="1" page="1" pageScale="1" pageWidth="827" pageHeight="1169" math="0" shadow="0">
      <root>
        <mxCell id="WIyWlLk6GJQsqaUBKTNV-0" />
        <mxCell id="WIyWlLk6GJQsqaUBKTNV-1" parent="WIyWlLk6GJQsqaUBKTNV-0" />
        <mxCell id="3B2KSRO9jFRVrqz15oCo-13" style="edgeStyle=orthogonalEdgeStyle;rounded=0;orthogonalLoop=1;jettySize=auto;html=1;" edge="1" parent="WIyWlLk6GJQsqaUBKTNV-1" source="3B2KSRO9jFRVrqz15oCo-0" target="3B2KSRO9jFRVrqz15oCo-1">
          <mxGeometry relative="1" as="geometry" />
        </mxCell>
        <mxCell id="3B2KSRO9jFRVrqz15oCo-0" value="Start" style="ellipse;whiteSpace=wrap;html=1;" vertex="1" parent="WIyWlLk6GJQsqaUBKTNV-1">
          <mxGeometry x="220" y="50" width="120" height="80" as="geometry" />
        </mxCell>
        <mxCell id="3B2KSRO9jFRVrqz15oCo-14" style="edgeStyle=orthogonalEdgeStyle;rounded=0;orthogonalLoop=1;jettySize=auto;html=1;entryX=0.5;entryY=0;entryDx=0;entryDy=0;" edge="1" parent="WIyWlLk6GJQsqaUBKTNV-1" source="3B2KSRO9jFRVrqz15oCo-1" target="3B2KSRO9jFRVrqz15oCo-2">
          <mxGeometry relative="1" as="geometry" />
        </mxCell>
        <mxCell id="3B2KSRO9jFRVrqz15oCo-1" value="User Accesses Application&lt;br&gt;&lt;br&gt;(Input suburb, date and begin search)" style="rounded=0;whiteSpace=wrap;html=1;" vertex="1" parent="WIyWlLk6GJQsqaUBKTNV-1">
          <mxGeometry x="200" y="160" width="160" height="80" as="geometry" />
        </mxCell>
        <mxCell id="3B2KSRO9jFRVrqz15oCo-15" style="edgeStyle=orthogonalEdgeStyle;rounded=0;orthogonalLoop=1;jettySize=auto;html=1;entryX=0;entryY=0.5;entryDx=0;entryDy=0;" edge="1" parent="WIyWlLk6GJQsqaUBKTNV-1" source="3B2KSRO9jFRVrqz15oCo-2" target="3B2KSRO9jFRVrqz15oCo-3">
          <mxGeometry relative="1" as="geometry" />
        </mxCell>
        <mxCell id="3B2KSRO9jFRVrqz15oCo-16" style="edgeStyle=orthogonalEdgeStyle;rounded=0;orthogonalLoop=1;jettySize=auto;html=1;entryX=0.5;entryY=0;entryDx=0;entryDy=0;" edge="1" parent="WIyWlLk6GJQsqaUBKTNV-1" source="3B2KSRO9jFRVrqz15oCo-2" target="3B2KSRO9jFRVrqz15oCo-5">
          <mxGeometry relative="1" as="geometry" />
        </mxCell>
        <mxCell id="3B2KSRO9jFRVrqz15oCo-2" value="System Proccess User Requests&lt;br&gt;&lt;br&gt;(Retrieve listings based on search)" style="rounded=0;whiteSpace=wrap;html=1;" vertex="1" parent="WIyWlLk6GJQsqaUBKTNV-1">
          <mxGeometry x="200" y="260" width="160" height="80" as="geometry" />
        </mxCell>
        <mxCell id="3B2KSRO9jFRVrqz15oCo-18" style="edgeStyle=orthogonalEdgeStyle;rounded=0;orthogonalLoop=1;jettySize=auto;html=1;" edge="1" parent="WIyWlLk6GJQsqaUBKTNV-1" source="3B2KSRO9jFRVrqz15oCo-3" target="3B2KSRO9jFRVrqz15oCo-9">
          <mxGeometry relative="1" as="geometry">
            <Array as="points">
              <mxPoint x="530" y="350" />
              <mxPoint x="420" y="350" />
            </Array>
          </mxGeometry>
        </mxCell>
        <mxCell id="3B2KSRO9jFRVrqz15oCo-19" style="edgeStyle=orthogonalEdgeStyle;rounded=0;orthogonalLoop=1;jettySize=auto;html=1;entryX=0.5;entryY=0;entryDx=0;entryDy=0;" edge="1" parent="WIyWlLk6GJQsqaUBKTNV-1" source="3B2KSRO9jFRVrqz15oCo-3" target="3B2KSRO9jFRVrqz15oCo-11">
          <mxGeometry relative="1" as="geometry" />
        </mxCell>
        <mxCell id="3B2KSRO9jFRVrqz15oCo-20" style="edgeStyle=orthogonalEdgeStyle;rounded=0;orthogonalLoop=1;jettySize=auto;html=1;" edge="1" parent="WIyWlLk6GJQsqaUBKTNV-1" source="3B2KSRO9jFRVrqz15oCo-3" target="3B2KSRO9jFRVrqz15oCo-12">
          <mxGeometry relative="1" as="geometry">
            <Array as="points">
              <mxPoint x="530" y="350" />
              <mxPoint x="640" y="350" />
            </Array>
          </mxGeometry>
        </mxCell>
        <mxCell id="3B2KSRO9jFRVrqz15oCo-3" value="User Interactions&lt;br&gt;&lt;br&gt;(Adjust Filters/Sorting)" style="rounded=0;whiteSpace=wrap;html=1;" vertex="1" parent="WIyWlLk6GJQsqaUBKTNV-1">
          <mxGeometry x="450" y="260" width="160" height="80" as="geometry" />
        </mxCell>
        <mxCell id="3B2KSRO9jFRVrqz15oCo-17" style="edgeStyle=orthogonalEdgeStyle;rounded=0;orthogonalLoop=1;jettySize=auto;html=1;entryX=1;entryY=0.5;entryDx=0;entryDy=0;" edge="1" parent="WIyWlLk6GJQsqaUBKTNV-1" source="3B2KSRO9jFRVrqz15oCo-4" target="3B2KSRO9jFRVrqz15oCo-5">
          <mxGeometry relative="1" as="geometry" />
        </mxCell>
        <mxCell id="3B2KSRO9jFRVrqz15oCo-4" value="Perform Chosen Action" style="rounded=0;whiteSpace=wrap;html=1;" vertex="1" parent="WIyWlLk6GJQsqaUBKTNV-1">
          <mxGeometry x="450" y="460" width="160" height="80" as="geometry" />
        </mxCell>
        <mxCell id="3B2KSRO9jFRVrqz15oCo-29" style="edgeStyle=orthogonalEdgeStyle;rounded=0;orthogonalLoop=1;jettySize=auto;html=1;" edge="1" parent="WIyWlLk6GJQsqaUBKTNV-1" source="3B2KSRO9jFRVrqz15oCo-5" target="3B2KSRO9jFRVrqz15oCo-6">
          <mxGeometry relative="1" as="geometry" />
        </mxCell>
        <mxCell id="3B2KSRO9jFRVrqz15oCo-5" value="Display Results&lt;br&gt;&lt;br&gt;(Show listing matching user input)" style="rounded=0;whiteSpace=wrap;html=1;" vertex="1" parent="WIyWlLk6GJQsqaUBKTNV-1">
          <mxGeometry x="200" y="460" width="160" height="80" as="geometry" />
        </mxCell>
        <mxCell id="3B2KSRO9jFRVrqz15oCo-30" style="edgeStyle=orthogonalEdgeStyle;rounded=0;orthogonalLoop=1;jettySize=auto;html=1;entryX=0.5;entryY=0;entryDx=0;entryDy=0;" edge="1" parent="WIyWlLk6GJQsqaUBKTNV-1" source="3B2KSRO9jFRVrqz15oCo-6" target="3B2KSRO9jFRVrqz15oCo-7">
          <mxGeometry relative="1" as="geometry" />
        </mxCell>
        <mxCell id="3B2KSRO9jFRVrqz15oCo-6" value="User Actions&lt;br&gt;&lt;br&gt;(Click on view more or view listing)" style="rounded=0;whiteSpace=wrap;html=1;" vertex="1" parent="WIyWlLk6GJQsqaUBKTNV-1">
          <mxGeometry x="200" y="560" width="160" height="80" as="geometry" />
        </mxCell>
        <mxCell id="3B2KSRO9jFRVrqz15oCo-31" style="edgeStyle=orthogonalEdgeStyle;rounded=0;orthogonalLoop=1;jettySize=auto;html=1;" edge="1" parent="WIyWlLk6GJQsqaUBKTNV-1" source="3B2KSRO9jFRVrqz15oCo-7" target="3B2KSRO9jFRVrqz15oCo-8">
          <mxGeometry relative="1" as="geometry" />
        </mxCell>
        <mxCell id="3B2KSRO9jFRVrqz15oCo-7" value="Additional Information&lt;br&gt;&lt;br&gt;(Open listing url in browser)" style="rounded=0;whiteSpace=wrap;html=1;" vertex="1" parent="WIyWlLk6GJQsqaUBKTNV-1">
          <mxGeometry x="200" y="660" width="160" height="80" as="geometry" />
        </mxCell>
        <mxCell id="3B2KSRO9jFRVrqz15oCo-8" value="End" style="ellipse;whiteSpace=wrap;html=1;" vertex="1" parent="WIyWlLk6GJQsqaUBKTNV-1">
          <mxGeometry x="220" y="760" width="120" height="80" as="geometry" />
        </mxCell>
        <mxCell id="3B2KSRO9jFRVrqz15oCo-28" style="edgeStyle=orthogonalEdgeStyle;rounded=0;orthogonalLoop=1;jettySize=auto;html=1;entryX=0.5;entryY=0;entryDx=0;entryDy=0;" edge="1" parent="WIyWlLk6GJQsqaUBKTNV-1" source="3B2KSRO9jFRVrqz15oCo-9" target="3B2KSRO9jFRVrqz15oCo-4">
          <mxGeometry relative="1" as="geometry">
            <Array as="points">
              <mxPoint x="420" y="450" />
              <mxPoint x="530" y="450" />
            </Array>
          </mxGeometry>
        </mxCell>
        <mxCell id="3B2KSRO9jFRVrqz15oCo-9" value="Price Distribution Chart" style="rhombus;whiteSpace=wrap;html=1;" vertex="1" parent="WIyWlLk6GJQsqaUBKTNV-1">
          <mxGeometry x="380" y="359.94" width="80" height="80" as="geometry" />
        </mxCell>
        <mxCell id="3B2KSRO9jFRVrqz15oCo-26" style="edgeStyle=orthogonalEdgeStyle;rounded=0;orthogonalLoop=1;jettySize=auto;html=1;entryX=0.5;entryY=0;entryDx=0;entryDy=0;" edge="1" parent="WIyWlLk6GJQsqaUBKTNV-1" source="3B2KSRO9jFRVrqz15oCo-11" target="3B2KSRO9jFRVrqz15oCo-4">
          <mxGeometry relative="1" as="geometry" />
        </mxCell>
        <mxCell id="3B2KSRO9jFRVrqz15oCo-11" value="Keyword Search" style="rhombus;whiteSpace=wrap;html=1;" vertex="1" parent="WIyWlLk6GJQsqaUBKTNV-1">
          <mxGeometry x="490" y="359.94" width="80" height="80" as="geometry" />
        </mxCell>
        <mxCell id="3B2KSRO9jFRVrqz15oCo-27" style="edgeStyle=orthogonalEdgeStyle;rounded=0;orthogonalLoop=1;jettySize=auto;html=1;entryX=0.5;entryY=0;entryDx=0;entryDy=0;" edge="1" parent="WIyWlLk6GJQsqaUBKTNV-1" source="3B2KSRO9jFRVrqz15oCo-12" target="3B2KSRO9jFRVrqz15oCo-4">
          <mxGeometry relative="1" as="geometry">
            <Array as="points">
              <mxPoint x="640" y="450" />
              <mxPoint x="530" y="450" />
            </Array>
          </mxGeometry>
        </mxCell>
        <mxCell id="3B2KSRO9jFRVrqz15oCo-12" value="Cleanliness Search" style="rhombus;whiteSpace=wrap;html=1;" vertex="1" parent="WIyWlLk6GJQsqaUBKTNV-1">
          <mxGeometry x="600" y="359.94" width="80" height="80" as="geometry" />
        </mxCell>
      </root>
    </mxGraphModel>
  </diagram>
</mxfile>
